<svg xmlns="http://www.w3.org/2000/svg" xmlns:xlink="http://www.w3.org/1999/xlink" viewBox="0 0 2500 2498"><linearGradient id="a" gradientUnits="userSpaceOnUse" x1="894.072" y1="1541.248" x2="1046.172" y2="1541.248" gradientTransform="translate(-14693.19 -24080.195) scale(16.4342)"><stop offset="0" stop-color="#fff" stop-opacity=".1"/><stop offset="1" stop-color="#fff" stop-opacity="0"/></linearGradient><path fill="url(#a)" d="M2297.7 0h-455.2C1732.3 0 1642 90.4 1642 200.5v588.3H983c-106.8 0-193.9 87.1-193.9 195.6v659H195.7C87.2 1643.4.1 1730.5.1 1839v460.2c0 108.5 87.1 195.6 195.6 198.9h2103.6c110.1 0 200.5-90.4 200.5-200.5v-2097C2498.2 90.4 2407.8 0 2297.7 0z"/><linearGradient id="b" gradientUnits="userSpaceOnUse" x1="894.072" y1="1541.248" x2="1046.172" y2="1541.248" gradientTransform="translate(-14693.19 -24080.195) scale(16.4342)"><stop offset="0" stop-color="#fff" stop-opacity=".1"/><stop offset="1" stop-color="#fff" stop-opacity="0"/></linearGradient><path fill="url(#b)" d="M2297.7 0h-455.2C1732.3 0 1642 90.4 1642 200.5v588.3H983c-106.8 0-193.9 87.1-193.9 195.6v659H195.7C87.2 1643.4.1 1730.5.1 1839v460.2c0 108.5 87.1 195.6 195.6 198.9h2103.6c110.1 0 200.5-90.4 200.5-200.5v-2097C2498.2 90.4 2407.8 0 2297.7 0z"/><defs><path id="c" d="M2297.7 0h-451.9c-110.1 0-200.5 90.4-200.5 200.5v588.3H987.9c-108.5 0-197.2 88.7-197.2 197.2v657.4H197.4C88.9 1643.4.2 1732.1.2 1840.6v460.2c0 108.5 88.7 197.2 197.2 197.2h2100.3c110.1 0 200.5-90.4 200.5-200.5v-2097C2498.2 90.4 2407.8 0 2297.7 0z"/></defs><clipPath id="d"><use xlink:href="#c" overflow="visible"/></clipPath><g clip-path="url(#d)"><path fill="#F57C00" d="M2297.7 0h-451.9c-110.1 0-200.5 90.4-200.5 200.5V2498h652.4c110.1 0 200.5-90.4 200.5-200.5v-2097C2498.2 90.4 2407.8 0 2297.7 0z"/><path fill="#FFC107" d="M789 986.1v657.4H197.4C88.9 1643.5.2 1732.2.2 1840.7v460.2c0 108.5 88.7 197.2 197.2 197.2h1446.2V788.8H986.2c-108.4 0-197.2 88.8-197.2 197.3z"/></g><defs><path id="e" d="M2297.7 0h-451.9c-110.1 0-200.5 90.4-200.5 200.5v588.3H987.9c-108.5 0-197.2 88.7-197.2 197.2v657.4H197.4C88.9 1643.4.2 1732.1.2 1840.6v460.2c0 108.5 88.7 197.2 197.2 197.2h2100.3c110.1 0 200.5-90.4 200.5-200.5v-2097C2498.2 90.4 2407.8 0 2297.7 0z"/></defs><clipPath id="f"><use xlink:href="#e" overflow="visible"/></clipPath><linearGradient id="g" gradientUnits="userSpaceOnUse" x1="968.322" y1="1539.498" x2="1042.432" y2="1613.608" gradientTransform="translate(-14693.19 -24080.195) scale(16.4342)"><stop offset="0" stop-color="#bf360c" stop-opacity=".2"/><stop offset="1" stop-color="#bf360c" stop-opacity=".02"/></linearGradient><path clip-path="url(#f)" fill="url(#g)" d="M1643.6 788.8V2498H2296c110.1 0 200.5-90.4 200.5-200.5v-654.1l-852.9-854.6z"/><defs><path id="h" d="M2297.7 0h-451.9c-110.1 0-200.5 90.4-200.5 200.5v588.3H987.9c-108.5 0-197.2 88.7-197.2 197.2v657.4H197.4C88.9 1643.4.2 1732.1.2 1840.6v460.2c0 108.5 88.7 197.2 197.2 197.2h2100.3c110.1 0 200.5-90.4 200.5-200.5v-2097C2498.2 90.4 2407.8 0 2297.7 0z"/></defs><clipPath id="i"><use xlink:href="#h" overflow="visible"/></clipPath><path opacity=".2" clip-path="url(#i)" fill="#FFF" d="M986.2 805.3h657.4v-16.4H986.2c-108.5 0-197.2 88.7-197.2 197.2v16.4c0-108.5 88.8-197.2 197.2-197.2z"/><g><defs><path id="j" d="M2297.7 0h-451.9c-110.1 0-200.5 90.4-200.5 200.5v588.3H987.9c-108.5 0-197.2 88.7-197.2 197.2v657.4H197.4C88.9 1643.4.2 1732.1.2 1840.6v460.2c0 108.5 88.7 197.2 197.2 197.2h2100.3c110.1 0 200.5-90.4 200.5-200.5v-2097C2498.2 90.4 2407.8 0 2297.7 0z"/></defs><clipPath id="k"><use xlink:href="#j" overflow="visible"/></clipPath><path opacity=".2" clip-path="url(#k)" fill="#FFF" d="M197.4 1659.9H789v-16.4H197.4C88.9 1643.5.2 1732.2.2 1840.7v16.4c0-108.5 88.7-197.2 197.2-197.2z"/></g><g><defs><path id="l" d="M2297.7 0h-451.9c-110.1 0-200.5 90.4-200.5 200.5v588.3H987.9c-108.5 0-197.2 88.7-197.2 197.2v657.4H197.4C88.9 1643.4.2 1732.1.2 1840.6v460.2c0 108.5 88.7 197.2 197.2 197.2h2100.3c110.1 0 200.5-90.4 200.5-200.5v-2097C2498.2 90.4 2407.8 0 2297.7 0z"/></defs><clipPath id="m"><use xlink:href="#l" overflow="visible"/></clipPath><path opacity=".2" clip-path="url(#m)" fill="#FFF" d="M2297.7 0h-451.9c-110.1 0-200.5 90.4-200.5 200.5v16.4c0-110.1 90.4-200.5 200.5-200.5h451.9c110.1 0 200.5 90.4 200.5 200.5v-16.4C2498.2 90.4 2407.8 0 2297.7 0z"/></g><g><defs><path id="n" d="M2297.7 0h-451.9c-110.1 0-200.5 90.4-200.5 200.5v588.3H987.9c-108.5 0-197.2 88.7-197.2 197.2v657.4H197.4C88.9 1643.4.2 1732.1.2 1840.6v460.2c0 108.5 88.7 197.2 197.2 197.2h2100.3c110.1 0 200.5-90.4 200.5-200.5v-2097C2498.2 90.4 2407.8 0 2297.7 0z"/></defs><clipPath id="o"><use xlink:href="#n" overflow="visible"/></clipPath><path opacity=".2" clip-path="url(#o)" fill="#BF360C" d="M2297.7 2481.6H197.4C88.9 2481.6.2 2392.9.2 2284.4v16.4c0 108.5 88.7 197.2 197.2 197.2H2296c110.1 0 200.5-90.4 200.5-200.5v-16.4c1.7 110.1-88.7 200.5-198.8 200.5z"/></g><linearGradient id="p" gradientUnits="userSpaceOnUse" x1="945.041" y1="1516.279" x2="1043.367" y2="1614.605" gradientTransform="translate(-14693.19 -24080.195) scale(16.4342)"><stop offset="0" stop-color="#fff" stop-opacity=".1"/><stop offset="1" stop-color="#fff" stop-opacity="0"/></linearGradient><path fill="url(#p)" d="M2297.7 0h-451.9c-110.1 0-200.5 90.4-200.5 200.5v588.3H987.9c-108.5 0-197.2 88.7-197.2 197.2v657.4H197.4C88.9 1643.4.2 1732.1.2 1840.6v460.2c0 108.5 88.7 197.2 197.2 197.2h2100.3c110.1 0 200.5-90.4 200.5-200.5v-2097C2498.2 90.4 2407.8 0 2297.7 0z"/></svg>